# Alias OBJ Model File
# Exported from SketchUp, (c) 2000-2012 Trimble Navigation Limited
# File units = centimeters

mtllib predsoblje.mtl

g Mesh1 Group1 Model

usemtl FrontColor
v 545 0 -570
vt -224.409 2.06531e-13
vn -1 9.62549e-16 -0
v 545 0 -25
vt -9.84252 2.06531e-13
v 545 300 -25
vt -9.84252 118.11
v 545 300 -570
vt -224.409 118.11
f 1/1/1 2/2/1 3/3/1 4/4/1 

vt -214.567 0
vn 0 0 -1
v 465.44 86.6306 -25
vt -183.244 34.1066
vt -214.567 118.11
f 2/5/2 5/6/2 3/7/2

v 365.44 86.6306 -25
vt -143.874 34.1066
f 5/6/2 2/5/2 6/8/2

v 89.5502 87.9959 -25
vt -35.256 34.6441
f 2/5/2 7/9/2 6/8/2

v 0 0 -25
vt 0 0
f 8/10/2 7/9/2 2/5/2

v 0 300 -25
vt 0 118.11
f 7/9/2 8/10/2 9/11/2

vt 9.84252 118.11
vn 1 -4.81274e-16 2.64922e-16
vt 9.84252 -1.25492e-30
v 0 0 -570
vt 224.409 -2.86122e-29
v 2.88765e-13 300 -570
vt 224.409 118.11
f 9/12/3 8/13/3 10/14/3 11/15/3 

vt 8.7195e-15 118.11
vn -4.67749e-16 1.05508e-15 1
vt -1.04967e-13 2.36769e-13
v 79.3081 0 -570
vt 31.2237 2.36769e-13
v 79.3081 182.464 -570
vt 31.2237 71.8363
v 179.308 182.464 -570
vt 70.5938 71.8363
v 179.308 0 -570
vt 70.5938 2.36769e-13
vt 214.567 2.36769e-13
vt 214.567 118.11
f 11/16/4 10/17/4 12/18/4 13/19/4 14/20/4 15/21/4 1/22/4 4/23/4 

vt 224.409 71.8363
vn 1 -1.58258e-15 -0
vt 224.409 4.9414e-14
v 79.3081 0 -595
vt 234.252 4.9414e-14
v 79.3081 182.464 -595
vt 234.252 71.8363
f 13/24/5 12/25/5 16/26/5 17/27/5 

vt 31.2237 0
vn 0 0 1
v 179.308 0 -595
vt 70.5938 0
v 179.308 182.464 -595
f 16/28/6 18/29/6 19/20/6 17/19/6 

vt -224.409 1.1172e-13
vn -1 1.58258e-15 -0
vt -224.409 71.8363
vt -234.252 71.8363
vt -234.252 1.1172e-13
f 15/30/7 14/31/7 19/32/7 18/33/7 

vt -70.5938 224.409
vn 0 -1 -0
vt -31.2237 224.409
vt -31.2237 234.252
vt -70.5938 234.252
f 14/34/8 13/35/8 17/36/8 19/37/8 

v 89.5502 225.296 -25
vt -35.256 88.6992
f 7/9/2 9/11/2 20/38/2

v 189.55 225.296 -25
vt -74.6261 88.6992
f 20/38/2 9/11/2 21/39/2

f 3/7/2 21/39/2 9/11/2

v 465.44 223.931 -25
vt -183.244 88.1617
f 3/7/2 22/40/2 21/39/2

f 3/7/2 5/6/2 22/40/2

v 465.44 86.6306 -0
vt 0 34.1066
vn -1 0 -0
v 465.44 223.931 -0
vt 0 88.1617
vt -9.84252 88.1617
vt -9.84252 34.1066
f 23/41/9 24/42/9 22/43/9 5/44/9 

vt -183.244 0
v 365.44 223.931 -0
vt -143.874 0
v 365.44 223.931 -25
vt -143.874 9.84252
vt -183.244 9.84252
f 24/45/8 25/46/8 26/47/8 22/48/8 

v 365.44 86.6306 -0
f 26/43/9 6/44/9 27/41/9 25/42/9 

v 189.55 87.9959 -25
vt -74.6261 34.6441
vt -143.874 88.1617
f 6/8/2 28/49/2 26/50/2

f 28/49/2 6/8/2 7/9/2

v 89.5502 87.9959 -0
vt 35.256 0
vn 0 1 -0
v 189.55 87.9959 -0
vt 74.6261 0
vt 74.6261 9.84252
vt 35.256 9.84252
f 29/51/10 30/52/10 28/53/10 7/54/10 

vt 0 34.6441
v 189.55 225.296 -0
vt 0 88.6992
vt -9.84252 88.6992
vt -9.84252 34.6441
f 30/55/9 31/56/9 21/57/9 28/58/9 

vt -74.6261 0
v 89.5502 225.296 -0
vt -35.256 0
vt -35.256 9.84252
vt -74.6261 9.84252
f 31/59/8 32/60/8 20/61/8 21/62/8 

f 20/57/9 7/58/9 29/55/9 32/56/9 

f 26/50/2 28/49/2 21/39/2

f 26/50/2 21/39/2 22/40/2

vt 143.874 0
vt 183.244 0
vt 183.244 9.84252
vt 143.874 9.84252
f 27/63/10 23/64/10 5/65/10 6/66/10 

g Mesh2 Group2 Model

v 0 0 -25
v 545 0 -25
vt 214.567 0
vt 214.567 214.567
vt 70.5938 214.567
vt 70.5938 224.409
vt 31.2237 224.409
vt 31.2237 214.567
vt 0 214.567
f 33/10/10 34/67/10 1/68/10 15/69/10 18/70/10 16/71/10 12/72/10 10/73/10 

